<svg xmlns="http://www.w3.org/2000/svg" width="36.933" height="36.933" viewBox="0 0 36.933 36.933"><defs><style>.a{fill:#fbbb00;}.b{fill:#518ef8;}.c{fill:#28b446;}.d{fill:#f14336;}</style></defs><path class="a" d="M8.185,150.613l-1.286,4.8-4.7.1a18.5,18.5,0,0,1-.136-17.244h0l4.183.767,1.833,4.158a11.021,11.021,0,0,0,.1,7.42Z" transform="translate(0 -128.294)"/><path class="b" d="M279.366,208.176a18.459,18.459,0,0,1-6.583,17.85h0l-5.269-.269-.746-4.655a11.006,11.006,0,0,0,4.735-5.62h-9.875v-7.305h17.738Z" transform="translate(-242.756 -193.159)"/><path class="c" d="M58.334,319.956h0a18.472,18.472,0,0,1-27.826-5.649l5.984-4.9a10.983,10.983,0,0,0,15.826,5.623Z" transform="translate(-28.308 -287.09)"/><path class="d" d="M56.813,4.251l-5.982,4.9a10.981,10.981,0,0,0-16.19,5.75L28.625,9.974h0A18.47,18.47,0,0,1,56.813,4.251Z" transform="translate(-26.559)"/></svg>