<?xml version="1.0" encoding="UTF-8"?>
<svg width="122px" height="46px" viewBox="0 0 122 46" version="1.1" xmlns="http://www.w3.org/2000/svg" xmlns:xlink="http://www.w3.org/1999/xlink">
    <!-- Generator: Sketch 57.1 (83088) - https://sketch.com -->
    <title>Logo</title>
    <desc>Created with Sketch.</desc>
    <g id="Page-1" stroke="none" stroke-width="1" fill="none" fill-rule="evenodd">
        <path d="M4.85,36 C3.3499925,36 2.2,35.5916707 1.4,34.775 C0.599996,33.9583293 0.2,32.816674 0.2,31.35 L0.2,5.35 C0.2,3.8499925 0.599996,2.7 1.4,1.9 C2.2,1.099996 3.333326,0.7 4.8,0.7 C6.266674,0.7 7.399996,1.099996 8.2,1.9 C9.000004,2.7 9.4,3.8499925 9.4,5.35 L9.4,28.35 L21.6,28.35 C22.866673,28.35 23.8416633,28.68333 24.525,29.35 C25.2083367,30.01667 25.55,30.949994 25.55,32.15 C25.55,33.3833395 25.2083367,34.33333 24.525,35 C23.8416633,35.66667 22.866673,36 21.6,36 L4.85,36 Z M42.778571,36.55 C40.045224,36.55 37.6619145,36.0333385 35.628571,35 C33.5952275,33.9666615 32.01191,32.483343 30.878571,30.55 C29.745232,28.616657 29.178571,26.3333465 29.178571,23.7 C29.178571,21.03332 29.745232,18.7416763 30.878571,16.825 C32.01191,14.9083238 33.5952275,13.4333385 35.628571,12.4 C37.6619145,11.3666615 40.045224,10.85 42.778571,10.85 C45.511918,10.85 47.8952275,11.3666615 49.928571,12.4 C51.9619145,13.4333385 53.5368987,14.9083238 54.653571,16.825 C55.7702433,18.7416763 56.328571,21.03332 56.328571,23.7 C56.328571,26.3333465 55.7702433,28.616657 54.653571,30.55 C53.5368987,32.483343 51.9619145,33.9666615 49.928571,35 C47.8952275,36.0333385 45.511918,36.55 42.778571,36.55 Z M42.778571,30 C44.111911,30 45.2119,29.500005 46.078571,28.5 C46.945242,27.499995 47.378571,25.900011 47.378571,23.7 C47.378571,21.4666555 46.945242,19.8583382 46.078571,18.875 C45.2119,17.8916618 44.111911,17.4 42.778571,17.4 C41.4118975,17.4 40.295242,17.8916618 39.428571,18.875 C38.5619,19.8583382 38.128571,21.4666555 38.128571,23.7 C38.128571,25.900011 38.5619,27.499995 39.428571,28.5 C40.295242,29.500005 41.4118975,30 42.778571,30 Z M74.357142,45.55 C70.5904565,45.55 67.4904875,45.0666715 65.057142,44.1 C63.857136,43.6666645 63.0821438,43.0333375 62.732142,42.2 C62.3821403,41.3666625 62.340474,40.5250042 62.607142,39.675 C62.87381,38.8249957 63.3488052,38.1750023 64.032142,37.725 C64.7154787,37.2749978 65.523804,37.216665 66.457142,37.55 C67.923816,38.150003 69.2488027,38.5416657 70.432142,38.725 C71.6154813,38.9083342 72.640471,39 73.507142,39 C75.5404855,39 77.0654702,38.5750043 78.082142,37.725 C79.0988137,36.8749957 79.607142,35.550009 79.607142,33.75 L79.607142,31.45 C78.9071385,32.650006 77.857149,33.5999965 76.457142,34.3 C75.057135,35.0000035 73.55715,35.35 71.957142,35.35 C69.757131,35.35 67.8404835,34.8416717 66.207142,33.825 C64.5738005,32.8083282 63.2988132,31.3833425 62.382142,29.55 C61.4654708,27.7166575 61.007142,25.566679 61.007142,23.1 C61.007142,20.633321 61.4654708,18.4833425 62.382142,16.65 C63.2988132,14.8166575 64.5738005,13.3916718 66.207142,12.375 C67.8404835,11.3583282 69.757131,10.85 71.957142,10.85 C73.5904835,10.85 75.0988018,11.1916632 76.482142,11.875 C77.8654823,12.5583367 78.8738055,13.4833275 79.507142,14.65 C79.8071435,12.183321 81.2737955,10.95 83.907142,10.95 C86.8071565,10.95 88.257142,12.4333185 88.257142,15.4 L88.257142,32.7 C88.257142,37.0000215 87.057154,40.216656 84.657142,42.35 C82.25713,44.483344 78.823831,45.55 74.357142,45.55 Z M74.707142,28.8 C76.173816,28.8 77.340471,28.300005 78.207142,27.3 C79.073813,26.299995 79.507142,24.9 79.507142,23.1 C79.507142,21.299991 79.073813,19.9 78.207142,18.9 C77.340471,17.9 76.173816,17.4 74.707142,17.4 C73.2738015,17.4 72.123813,17.9 71.257142,18.9 C70.390471,19.9 69.957142,21.299991 69.957142,23.1 C69.957142,24.9 70.390471,26.299995 71.257142,27.3 C72.123813,28.300005 73.2738015,28.8 74.707142,28.8 Z M107.635713,36.55 C104.902366,36.55 102.519057,36.0333385 100.485713,35 C98.4523695,33.9666615 96.869052,32.483343 95.735713,30.55 C94.602374,28.616657 94.035713,26.3333465 94.035713,23.7 C94.035713,21.03332 94.602374,18.7416763 95.735713,16.825 C96.869052,14.9083238 98.4523695,13.4333385 100.485713,12.4 C102.519057,11.3666615 104.902366,10.85 107.635713,10.85 C110.36906,10.85 112.752369,11.3666615 114.785713,12.4 C116.819056,13.4333385 118.394041,14.9083238 119.510713,16.825 C120.627385,18.7416763 121.185713,21.03332 121.185713,23.7 C121.185713,26.3333465 120.627385,28.616657 119.510713,30.55 C118.394041,32.483343 116.819056,33.9666615 114.785713,35 C112.752369,36.0333385 110.36906,36.55 107.635713,36.55 Z M107.635713,30 C108.969053,30 110.069042,29.500005 110.935713,28.5 C111.802384,27.499995 112.235713,25.900011 112.235713,23.7 C112.235713,21.4666555 111.802384,19.8583382 110.935713,18.875 C110.069042,17.8916618 108.969053,17.4 107.635713,17.4 C106.269039,17.4 105.152384,17.8916618 104.285713,18.875 C103.419042,19.8583382 102.985713,21.4666555 102.985713,23.7 C102.985713,25.900011 103.419042,27.499995 104.285713,28.5 C105.152384,29.500005 106.269039,30 107.635713,30 Z" id="Logo" fill="#FFFFFF" fill-rule="nonzero"></path>
    </g>
</svg>